<?xml version="1.0" encoding="UTF-8"?>
<svg id="Layer_2" xmlns="http://www.w3.org/2000/svg" viewBox="0 0 431.07 648.07">
  <defs>
    <style>
      .cls-1 {
        fill: #1c1c1c;
      }
    </style>
  </defs>
  <g id="Layer_1-2" data-name="Layer_1">
    <g>
      <path class="cls-1" d="M315.89,244.89v158.28l-100.36,79.15-100.36-79.15v-158.28l84.03-66.27c9.57-7.55,23.08-7.55,32.65,0l84.03,66.27Z"/>
      <path class="cls-1" d="M181.21,11.16L14.08,142.96c-9.02,7.11-14.08,16.74-14.08,26.77v308.6c0,10.03,5.06,19.66,14.08,26.77l167.13,131.8c18.88,14.89,49.76,14.89,68.64,0l167.13-131.8c9.02-7.11,14.08-16.74,14.08-26.77V169.73c0-10.03-5.06-19.66-14.08-26.77L249.85,11.16c-18.88-14.89-49.76-14.89-68.64,0ZM353.49,455.04l-103.63,81.73c-18.88,14.89-49.76,14.89-68.64,0l-103.63-81.73c-9.02-7.11-14.08-16.74-14.08-26.77v-208.46c0-10.03,5.06-19.66,14.08-26.77l103.63-81.73c18.88-14.89,49.76-14.89,68.64,0l103.63,81.73c9.02,7.11,14.08,16.74,14.08,26.77v208.46c0,10.03-5.06,19.66-14.08,26.77Z"/>
      <polygon class="cls-1" points="315.89 244.89 315.89 403.17 215.53 482.32 115.17 403.17 115.17 244.89 215.53 165.75 315.89 244.89"/>
      <polygon class="cls-1" points="315.89 244.89 315.89 403.17 215.53 482.32 115.17 403.17 115.17 244.89 215.53 165.75 315.89 244.89"/>
    </g>
  </g>
</svg>