<svg width="147" height="16" viewBox="0 0 147 16" fill="none" xmlns="http://www.w3.org/2000/svg">
<path d="M16.08 7.32C16.08 8.37333 15.9067 9.38667 15.56 10.36C15.2134 11.32 14.7 12.1733 14.02 12.92C13.3534 13.6533 12.5334 14.24 11.56 14.68C10.5867 15.1067 9.48002 15.32 8.24003 15.32C7.16003 15.32 6.14002 15.1267 5.18002 14.74C4.23336 14.34 3.40002 13.8 2.68002 13.12C1.97336 12.44 1.41336 11.6467 1.00002 10.74C0.600024 9.82 0.400024 8.84 0.400024 7.8C0.400024 6.76 0.600024 5.78667 1.00002 4.88C1.41336 3.96 1.97336 3.16 2.68002 2.48C3.40002 1.8 4.23336 1.26667 5.18002 0.879999C6.14002 0.479999 7.16003 0.279999 8.24003 0.279999C9.02669 0.279999 9.79336 0.386666 10.54 0.599999C11.2867 0.813332 11.98 1.11333 12.62 1.5C13.26 1.87333 13.8267 2.33333 14.32 2.88C14.8267 3.41333 15.24 4 15.56 4.64H11.84C11.4134 4.18667 10.8734 3.82667 10.22 3.56C9.58002 3.29333 8.92003 3.16 8.24003 3.16C7.60002 3.16 7.00002 3.28 6.44002 3.52C5.88002 3.76 5.38669 4.09333 4.96002 4.52C4.54669 4.93333 4.21336 5.42667 3.96002 6C3.72002 6.56 3.60002 7.16 3.60002 7.8C3.60002 8.44 3.72002 9.04 3.96002 9.6C4.21336 10.16 4.54669 10.6533 4.96002 11.08C5.38669 11.4933 5.88002 11.8267 6.44002 12.08C7.00002 12.32 7.60002 12.44 8.24003 12.44C8.78669 12.44 9.30669 12.3533 9.80002 12.18C10.2934 11.9933 10.74 11.74 11.14 11.42C11.54 11.1 11.88 10.7267 12.16 10.3C12.44 9.86 12.64 9.38667 12.76 8.88H7.82002V6.56H16.08V7.32Z" fill="#2EF8A0"/>
<path d="M18.4844 15V0.599999H28.3644V3.48H21.6844V6.32H27.1644V9.2H21.6844V12.12H28.3644V15H18.4844Z" fill="#2EF8A0"/>
<path d="M31.0664 15V0.599999H34.1864L39.7664 11.1L45.3464 0.599999H48.4664V15H45.2664V6.72L41.0664 15H38.4664L34.2664 6.72V15H31.0664Z" fill="#2EF8A0"/>
<path d="M66.061 10.32C65.7943 11.0533 65.421 11.7267 64.941 12.34C64.461 12.9533 63.901 13.48 63.261 13.92C62.621 14.36 61.9143 14.7067 61.141 14.96C60.3676 15.2 59.5543 15.32 58.701 15.32C57.621 15.32 56.601 15.1267 55.641 14.74C54.6943 14.34 53.861 13.8 53.141 13.12C52.4343 12.44 51.8743 11.6467 51.461 10.74C51.061 9.82 50.861 8.84 50.861 7.8C50.861 6.76 51.061 5.78667 51.461 4.88C51.8743 3.96 52.4343 3.16 53.141 2.48C53.861 1.8 54.6943 1.26667 55.641 0.879999C56.601 0.479999 57.621 0.279999 58.701 0.279999C59.5543 0.279999 60.3676 0.406666 61.141 0.66C61.9276 0.899999 62.641 1.24667 63.281 1.7C63.9343 2.14 64.501 2.67333 64.981 3.3C65.461 3.91333 65.8343 4.58667 66.101 5.32H62.621C62.2076 4.66667 61.661 4.14667 60.981 3.76C60.301 3.36 59.541 3.16 58.701 3.16C58.061 3.16 57.461 3.28 56.901 3.52C56.341 3.76 55.8476 4.09333 55.421 4.52C55.0076 4.93333 54.6743 5.42667 54.421 6C54.181 6.56 54.061 7.16 54.061 7.8C54.061 8.44 54.181 9.04 54.421 9.6C54.6743 10.16 55.0076 10.6533 55.421 11.08C55.8476 11.4933 56.341 11.8267 56.901 12.08C57.461 12.32 58.061 12.44 58.701 12.44C59.5276 12.44 60.2743 12.2467 60.941 11.86C61.621 11.4733 62.1676 10.96 62.581 10.32H66.061Z" fill="white"/>
<path d="M73.0172 0.599999H75.7372L82.1372 15H78.5372L77.4572 12.36H71.2972L70.2172 15H66.6172L73.0172 0.599999ZM72.3172 9.88H76.4372L74.3772 4.84L72.3172 9.88Z" fill="white"/>
<path d="M90.8446 6.56C91.3379 6.65333 91.8112 6.80667 92.2646 7.02C92.7312 7.22 93.1446 7.48667 93.5046 7.82C93.8646 8.15333 94.1512 8.54667 94.3646 9C94.5912 9.44 94.7046 9.94667 94.7046 10.52C94.7046 11.2133 94.5712 11.8533 94.3046 12.44C94.0512 13.0267 93.6846 13.5333 93.2046 13.96C92.7246 14.3867 92.1379 14.72 91.4446 14.96C90.7646 15.2 89.9979 15.32 89.1446 15.32C88.3712 15.32 87.6512 15.1867 86.9846 14.92C86.3179 14.64 85.7379 14.2667 85.2446 13.8C84.7646 13.3333 84.3846 12.7933 84.1046 12.18C83.8379 11.5667 83.7046 10.92 83.7046 10.24H86.8246C86.8912 10.8667 87.1312 11.3933 87.5446 11.82C87.9712 12.2333 88.5046 12.44 89.1446 12.44C89.8912 12.44 90.4846 12.2733 90.9246 11.94C91.3779 11.6067 91.6046 11.1333 91.6046 10.52C91.6046 10.2133 91.5246 9.96667 91.3646 9.78C91.2179 9.58 90.9979 9.40667 90.7046 9.26C90.4112 9.11333 90.0512 8.98667 89.6246 8.88C89.2112 8.76 88.7379 8.64 88.2046 8.52C87.6179 8.38667 87.0646 8.21333 86.5446 8C86.0246 7.78667 85.5646 7.52667 85.1646 7.22C84.7779 6.91333 84.4712 6.56 84.2446 6.16C84.0179 5.76 83.9046 5.3 83.9046 4.78C83.9046 4.11333 84.0246 3.50667 84.2646 2.96C84.5179 2.41333 84.8712 1.94 85.3246 1.54C85.7779 1.14 86.3246 0.833333 86.9646 0.619999C87.6179 0.393332 88.3446 0.279999 89.1446 0.279999C89.8646 0.279999 90.5446 0.393332 91.1846 0.619999C91.8246 0.846666 92.3846 1.16 92.8646 1.56C93.3579 1.96 93.7446 2.43333 94.0246 2.98C94.3046 3.51333 94.4446 4.1 94.4446 4.74H91.2646C91.1312 4.28667 90.8646 3.91333 90.4646 3.62C90.0779 3.31333 89.6379 3.16 89.1446 3.16C88.5446 3.16 88.0379 3.30667 87.6246 3.6C87.2112 3.88 87.0046 4.23333 87.0046 4.66C87.0046 4.91333 87.1112 5.14 87.3246 5.34C87.5512 5.54 87.8446 5.72 88.2046 5.88C88.5646 6.02667 88.9712 6.16 89.4246 6.28C89.8912 6.38667 90.3646 6.48 90.8446 6.56Z" fill="white"/>
<path d="M97.2735 15V0.599999H107.153V3.48H100.473V6.32H105.953V9.2H100.473V12.12H107.153V15H97.2735Z" fill="white"/>
<path d="M112.695 13.56C112.695 13.8 112.649 14.0267 112.555 14.24C112.462 14.44 112.335 14.62 112.175 14.78C112.029 14.94 111.849 15.06 111.635 15.14C111.435 15.2333 111.215 15.28 110.975 15.28C110.495 15.28 110.089 15.1133 109.755 14.78C109.422 14.4467 109.255 14.04 109.255 13.56C109.255 13.32 109.295 13.1 109.375 12.9C109.469 12.6867 109.595 12.5067 109.755 12.36C109.915 12.2 110.095 12.0733 110.295 11.98C110.509 11.8867 110.735 11.84 110.975 11.84C111.215 11.84 111.435 11.8867 111.635 11.98C111.849 12.0733 112.029 12.2 112.175 12.36C112.335 12.5067 112.462 12.6867 112.555 12.9C112.649 13.1 112.695 13.32 112.695 13.56Z" fill="white"/>
<path d="M129.471 7.32C129.471 8.37333 129.297 9.38667 128.951 10.36C128.604 11.32 128.091 12.1733 127.411 12.92C126.744 13.6533 125.924 14.24 124.951 14.68C123.977 15.1067 122.871 15.32 121.631 15.32C120.551 15.32 119.531 15.1267 118.571 14.74C117.624 14.34 116.791 13.8 116.071 13.12C115.364 12.44 114.804 11.6467 114.391 10.74C113.991 9.82 113.791 8.84 113.791 7.8C113.791 6.76 113.991 5.78667 114.391 4.88C114.804 3.96 115.364 3.16 116.071 2.48C116.791 1.8 117.624 1.26667 118.571 0.879999C119.531 0.479999 120.551 0.279999 121.631 0.279999C122.417 0.279999 123.184 0.386666 123.931 0.599999C124.677 0.813332 125.371 1.11333 126.011 1.5C126.651 1.87333 127.217 2.33333 127.711 2.88C128.217 3.41333 128.631 4 128.951 4.64H125.231C124.804 4.18667 124.264 3.82667 123.611 3.56C122.971 3.29333 122.311 3.16 121.631 3.16C120.991 3.16 120.391 3.28 119.831 3.52C119.271 3.76 118.777 4.09333 118.351 4.52C117.937 4.93333 117.604 5.42667 117.351 6C117.111 6.56 116.991 7.16 116.991 7.8C116.991 8.44 117.111 9.04 117.351 9.6C117.604 10.16 117.937 10.6533 118.351 11.08C118.777 11.4933 119.271 11.8267 119.831 12.08C120.391 12.32 120.991 12.44 121.631 12.44C122.177 12.44 122.697 12.3533 123.191 12.18C123.684 11.9933 124.131 11.74 124.531 11.42C124.931 11.1 125.271 10.7267 125.551 10.3C125.831 9.86 126.031 9.38667 126.151 8.88H121.211V6.56H129.471V7.32Z" fill="white"/>
<path d="M146.955 7.32C146.955 8.37333 146.782 9.38667 146.435 10.36C146.088 11.32 145.575 12.1733 144.895 12.92C144.228 13.6533 143.408 14.24 142.435 14.68C141.462 15.1067 140.355 15.32 139.115 15.32C138.035 15.32 137.015 15.1267 136.055 14.74C135.108 14.34 134.275 13.8 133.555 13.12C132.848 12.44 132.288 11.6467 131.875 10.74C131.475 9.82 131.275 8.84 131.275 7.8C131.275 6.76 131.475 5.78667 131.875 4.88C132.288 3.96 132.848 3.16 133.555 2.48C134.275 1.8 135.108 1.26667 136.055 0.879999C137.015 0.479999 138.035 0.279999 139.115 0.279999C139.902 0.279999 140.668 0.386666 141.415 0.599999C142.162 0.813332 142.855 1.11333 143.495 1.5C144.135 1.87333 144.702 2.33333 145.195 2.88C145.702 3.41333 146.115 4 146.435 4.64H142.715C142.288 4.18667 141.748 3.82667 141.095 3.56C140.455 3.29333 139.795 3.16 139.115 3.16C138.475 3.16 137.875 3.28 137.315 3.52C136.755 3.76 136.262 4.09333 135.835 4.52C135.422 4.93333 135.088 5.42667 134.835 6C134.595 6.56 134.475 7.16 134.475 7.8C134.475 8.44 134.595 9.04 134.835 9.6C135.088 10.16 135.422 10.6533 135.835 11.08C136.262 11.4933 136.755 11.8267 137.315 12.08C137.875 12.32 138.475 12.44 139.115 12.44C139.662 12.44 140.182 12.3533 140.675 12.18C141.168 11.9933 141.615 11.74 142.015 11.42C142.415 11.1 142.755 10.7267 143.035 10.3C143.315 9.86 143.515 9.38667 143.635 8.88H138.695V6.56H146.955V7.32Z" fill="white"/>
</svg>
